<?xml version="1.0" encoding="iso-8859-1"?>
<!-- Generator: Adobe Illustrator 19.0.0, SVG Export Plug-In . SVG Version: 6.00 Build 0)  -->
<svg version="1.1" id="Capa_1" xmlns="http://www.w3.org/2000/svg" xmlns:xlink="http://www.w3.org/1999/xlink" x="0px" y="0px"
	 viewBox="0 0 440 440" style="enable-background:new 0 0 440 440;" xml:space="preserve">
<g id="XMLID_15_">
	<path id="XMLID_936_" style="fill:#565659;" d="M205,0c-22.091,0-40,17.909-40,40h80C245,17.909,227.092,0,205,0z"/>
	<rect id="XMLID_937_" x="205" y="70" style="fill:#00D7DF;" width="40" height="120"/>
	<rect id="XMLID_938_" x="165" y="70" style="fill:#CCF7F9;" width="40" height="120"/>
	<polygon id="XMLID_939_" style="fill:#00D7DF;" points="205,340 235,340 245,220 205,220 	"/>
	<polygon id="XMLID_940_" style="fill:#CCF7F9;" points="205,220 165,220 175,340 205,340 	"/>
	<path id="XMLID_941_" style="fill:#565659;" d="M175,340l-10,50l40,50l40-50l-10-50h-30H175z M220,375c0,8.284-6.716,15-15,15
		s-15-6.716-15-15s6.716-15,15-15S220,366.716,220,375z"/>
	<polygon id="XMLID_944_" style="fill:#00A1A7;" points="245,70 245,40 165,40 165,70 205,70 	"/>
	<polygon id="XMLID_945_" style="fill:#00A1A7;" points="165,190 165,220 205,220 245,220 245,190 205,190 	"/>
	<polygon id="XMLID_946_" style="fill:#565659;" points="245,40 245,70 245,190 275,190 275,40 	"/>
	<circle id="XMLID_947_" style="fill:#2B2B2C;" cx="205" cy="375" r="15"/>
</g>
<g>
</g>
<g>
</g>
<g>
</g>
<g>
</g>
<g>
</g>
<g>
</g>
<g>
</g>
<g>
</g>
<g>
</g>
<g>
</g>
<g>
</g>
<g>
</g>
<g>
</g>
<g>
</g>
<g>
</g>
</svg>
