<?xml version="1.0" encoding="iso-8859-1"?>
<!-- Generator: Adobe Illustrator 19.0.0, SVG Export Plug-In . SVG Version: 6.00 Build 0)  -->
<svg version="1.1" id="Layer_1" xmlns="http://www.w3.org/2000/svg" xmlns:xlink="http://www.w3.org/1999/xlink" x="0px" y="0px"
	 viewBox="0 0 512 512" style="enable-background:new 0 0 512 512;" xml:space="preserve">
<path style="fill:#E0315B;" d="M442.216,176.623H69.782v-63.57c0-20.712,16.79-37.503,37.503-37.503h297.429
	c20.712,0,37.503,16.79,37.503,37.503L442.216,176.623L442.216,176.623z"/>
<rect x="101.286" y="176.617" style="fill:#E7AD7C;" width="309.435" height="320.063"/>
<g>
	<path style="fill:#E4AAA9;" d="M165.725,496.683h-63.637V278.695h31.818c17.573,0,31.819,14.245,31.819,31.819V496.683z"/>
	<path style="fill:#E4AAA9;" d="M286.028,496.683h-63.637V310.515c0-17.573,14.245-31.819,31.819-31.819l0,0
		c17.573,0,31.819,14.245,31.819,31.819v186.168H286.028z"/>
	<path style="fill:#E4AAA9;" d="M409.911,496.683h-60.863V310.515c0-17.573,14.245-31.819,31.819-31.819h29.043V496.683z"/>
</g>
<path d="M369.767,247.072c-1.011,0-2.008-0.107-3.002-0.306c-0.982-0.199-1.946-0.49-2.864-0.873
	c-0.92-0.383-1.807-0.858-2.649-1.409c-0.827-0.55-1.608-1.193-2.312-1.897c-2.864-2.848-4.501-6.799-4.501-10.827
	c0-0.995,0.106-2.008,0.305-3.002c0.199-0.982,0.49-1.946,0.873-2.864c0.383-0.917,0.858-1.807,1.409-2.634
	c0.567-0.844,1.194-1.625,1.914-2.329c3.553-3.568,8.838-5.191,13.815-4.196c0.98,0.201,1.945,0.49,2.862,0.873
	c0.92,0.383,1.809,0.859,2.649,1.409c0.827,0.567,1.623,1.21,2.328,1.914c2.848,2.835,4.473,6.786,4.473,10.827
	c0,0.994-0.093,2.006-0.291,2.986c-0.199,0.98-0.49,1.945-0.873,2.864c-0.383,0.933-0.858,1.821-1.409,2.648
	c-0.567,0.842-1.194,1.625-1.899,2.329c-0.704,0.704-1.499,1.348-2.328,1.897c-0.842,0.551-1.73,1.026-2.649,1.409
	c-0.919,0.383-1.882,0.674-2.862,0.873C371.758,246.965,370.761,247.072,369.767,247.072z"/>
<path d="M404.714,60.236h-59.147V15.314C345.566,6.858,338.709,0,330.252,0H181.746c-8.456,0-15.314,6.858-15.314,15.314v44.922
	h-59.147c-29.123,0-52.815,23.694-52.815,52.817v63.57c0,8.456,6.858,15.314,15.314,15.314h16.188v304.749
	c0,8.456,6.858,15.314,15.314,15.314h309.428c8.456,0,15.314-6.858,15.314-15.314V191.937h16.188
	c8.456,0,15.314-6.858,15.314-15.314v-63.57C457.53,83.93,433.836,60.236,404.714,60.236z M197.06,30.628h117.88v29.608H197.06
	V30.628z M117.4,481.369V294.009h16.505c9.1,0,16.504,7.404,16.504,16.504v170.854H117.4V481.369z M237.705,481.369V310.515
	c0-9.1,7.404-16.504,16.505-16.504c9.1,0,16.504,7.404,16.504,16.504v170.854L237.705,481.369L237.705,481.369z M364.364,481.369
	V310.515c0-9.1,7.404-16.504,16.504-16.504h13.731V481.37h-30.234V481.369z M395.398,263.381h-14.53
	c-25.989,0-47.132,21.144-47.132,47.132V481.37h-32.392V310.515c0-25.989-21.144-47.132-47.132-47.132
	c-25.991,0-47.134,21.144-47.134,47.132v170.857H181.04V310.515c0-25.989-21.144-47.132-47.132-47.132H116.6v-16.314h207.219
	c8.456,0,15.314-6.858,15.314-15.314s-6.858-15.314-15.314-15.314H116.6v-24.502h278.8v71.443H395.398z M426.902,161.309h-16.188
	H101.286h-16.19v-48.256c0-12.234,9.953-22.188,22.187-22.188h297.431c12.234,0,22.187,9.954,22.187,22.188v48.256H426.902z"/>
<g>
</g>
<g>
</g>
<g>
</g>
<g>
</g>
<g>
</g>
<g>
</g>
<g>
</g>
<g>
</g>
<g>
</g>
<g>
</g>
<g>
</g>
<g>
</g>
<g>
</g>
<g>
</g>
<g>
</g>
</svg>
