<?xml version="1.0" encoding="iso-8859-1"?>
<!-- Generator: Adobe Illustrator 19.0.0, SVG Export Plug-In . SVG Version: 6.00 Build 0)  -->
<svg version="1.1" id="Layer_1" xmlns="http://www.w3.org/2000/svg" xmlns:xlink="http://www.w3.org/1999/xlink" x="0px" y="0px"
	 viewBox="0 0 512 512" style="enable-background:new 0 0 512 512;" xml:space="preserve">
<path style="fill:#FFDA44;" d="M276.014,23.866l67.027,135.799l149.825,21.785c18.306,2.662,25.615,25.157,12.369,38.071
	L396.825,325.205l25.578,149.24c3.125,18.232-16.012,32.135-32.385,23.528l-134.025-70.452l-134.016,70.452
	c-16.374,8.608-35.511-5.294-32.386-23.528l25.58-149.241L6.764,219.521c-13.246-12.912-5.937-35.409,12.369-38.071l149.824-21.787
	l67.026-135.798C244.171,7.277,267.827,7.277,276.014,23.866z"/>
<path style="fill:#FFAA00;" d="M492.867,181.448l-149.825-21.785L276.014,23.866c-4.215-8.541-12.524-12.695-20.718-12.441v416.463
	l0.698-0.366l134.025,70.451c16.374,8.607,35.51-5.296,32.386-23.528l-25.578-149.241l108.409-105.685
	C518.482,206.605,511.172,184.11,492.867,181.448z"/>
<g>
</g>
<g>
</g>
<g>
</g>
<g>
</g>
<g>
</g>
<g>
</g>
<g>
</g>
<g>
</g>
<g>
</g>
<g>
</g>
<g>
</g>
<g>
</g>
<g>
</g>
<g>
</g>
<g>
</g>
</svg>
